<?xml version="1.0" encoding="UTF-8"?>
<svg width="113px" height="119px" viewBox="0 0 113 119" version="1.1" xmlns="http://www.w3.org/2000/svg" xmlns:xlink="http://www.w3.org/1999/xlink">
    <!-- Generator: Sketch 61.2 (89653) - https://sketch.com -->
    <title>Group 76</title>
    <desc>Created with Sketch.</desc>
    <defs>
        <polygon id="path-1" points="0 118.424 112.346408 118.424 112.346408 0.45652 0 0.45652"></polygon>
    </defs>
    <g id="Symbols" stroke="none" stroke-width="1" fill="none" fill-rule="evenodd">
        <g id="FOOTER" transform="translate(-396.000000, -60.000000)">
            <g transform="translate(0.000000, -3.000000)" id="Group-76">
                <g transform="translate(396.000000, 63.000000)">
                    <path d="M49.4889376,69.6597088 L47.8201536,69.6597088 L44.5874496,78.0199008 L45.9036736,78.0199008 L46.2869696,77.8906288 L46.4957936,77.6067728 L47.0680256,76.0157328 L50.2401616,76.0157328 L50.8160096,77.6103888 L51.0284496,77.8978608 L51.4117456,78.0199008 L52.7216416,78.0199008 L49.5160576,69.7266048 L49.4889376,69.6597088 Z M48.6021136,71.7380048 L48.6527376,71.5617248 L48.7069776,71.7380048 L48.8561376,72.1646928 L49.7800256,74.7293408 L47.5326816,74.7293408 L48.4529536,72.1809648 L48.6021136,71.7380048 Z" id="Fill-1" fill="#FEFEFE"></path>
                    <polygon id="Fill-2" fill="#FEFEFE" points="59.2846816 74.7191256 59.2910096 75.0771096 59.2946256 75.1087496 55.3079856 69.9432936 55.1859456 69.8067896 55.0566736 69.7127736 54.9038976 69.6684776 54.7249056 69.6576296 53.8380816 69.6576296 53.8380816 78.0187256 55.3649376 78.0187256 55.3649376 72.9111256 55.3540896 72.5829736 55.3540896 72.5730296 59.3289776 77.7213096 59.5965616 77.9545416 59.9346576 78.0187256 60.8079216 78.0187256 60.8079216 69.6576296 59.2846816 69.6576296"></polygon>
                    <g id="Group-75" transform="translate(0.000000, 0.447480)">
                        <path d="M67.1770536,73.3738832 L66.5578136,72.9471952 L65.8707736,72.6660512 L65.1837336,72.4364352 L64.6078856,72.1950672 L64.2254936,71.9012672 L64.0907976,71.4881392 L64.1576936,71.1193072 L64.3647096,70.8345472 L64.7199816,70.6428992 L65.2280296,70.5705792 L65.7894136,70.6555552 L66.2133896,70.8381632 L66.5343096,71.0307152 L67.0857496,71.0686832 L67.2656456,70.8481072 L67.6679256,70.0634352 L67.6100696,70.0091952 C67.3198856,69.7316672 66.9682296,69.5119952 66.5551016,69.3565072 C66.1446856,69.2001152 65.6908776,69.1223712 65.2108536,69.1223712 C64.7814536,69.1223712 64.3918296,69.1901712 64.0564456,69.3284832 C63.7219656,69.4640832 63.4299736,69.6466912 63.2003576,69.8735952 L62.6651896,70.6591712 L62.4825816,71.5694992 C62.4825816,71.9518912 62.5368216,72.2836592 62.6480136,72.5476272 L63.0918776,73.2174912 L63.7147336,73.6514112 L64.4017736,73.9253232 L65.0824856,74.1323392 L65.6538136,74.3592432 L66.0398216,74.6702192 L66.1727096,75.1267392 C66.1727096,75.4829152 66.0705576,75.7432672 65.8608296,75.9294912 C65.6511016,76.1157152 65.3428376,76.2106352 64.9468856,76.2106352 L64.2697896,76.1021552 L63.7716856,75.8544592 L63.3965256,75.6013392 L62.7899416,75.5371552 L62.6073336,75.7025872 L62.1336376,76.5017232 L62.1914936,76.5586752 L62.7402216,77.0151952 L63.3929096,77.3641392 L64.1278616,77.5847152 L64.8989736,77.6624592 C65.3527816,77.6624592 65.7659096,77.5910432 66.1175656,77.4527312 C66.4737416,77.3071872 66.7820056,77.1110192 67.0287976,76.8669392 C67.2755896,76.6165312 67.4645256,76.3218272 67.5974136,75.9873472 C67.7230696,75.6546752 67.7872536,75.2966912 67.7872536,74.9170112 C67.7872536,74.5617392 67.7284936,74.2579952 67.6209176,74.0066832 L67.1770536,73.3738832 Z" id="Fill-3" fill="#FEFEFE"></path>
                        <path d="M54.893592,57.2271776 C54.893592,55.7410016 54.521144,54.4889616 53.777152,53.5036016 C53.092824,52.5860416 52.060456,51.8754976 50.713496,51.3981856 C51.217928,51.2092496 51.680776,50.9787296 52.090288,50.7111456 C52.58116,50.3929376 53.005136,50.0006016 53.343232,49.5431776 C53.68856,49.0830416 53.952528,48.5388336 54.13152,47.9186896 C54.308704,47.3057776 54.399104,46.5880016 54.399104,45.7861536 C54.399104,44.8622656 54.220112,43.9880976 53.871168,43.1934816 C53.518608,42.3943456 53.005136,41.6901296 52.35064,41.1016256 C51.69524,40.5131216 50.892488,40.0421376 49.9686,39.7103696 C49.047424,39.3786016 47.998784,39.2086496 46.85432,39.2086496 C45.76048,39.2086496 44.718168,39.3650416 43.760832,39.6733056 C42.802592,39.9842816 41.946504,40.4516496 41.20432,41.0645616 C40.463944,41.6774736 39.837472,42.4522016 39.342984,43.3661456 C38.853016,44.2800896 38.514016,45.3558496 38.341352,46.5681136 L38.327792,46.6729776 L40.646552,47.0824896 C41.310088,47.1936816 41.875992,47.1267856 42.247536,46.8284656 C42.505176,46.6223536 42.70496,46.2905856 42.846888,45.8304496 C43.100912,45.0141376 43.553816,44.3334256 44.193848,43.8127216 C44.830264,43.2947296 45.646576,43.0307616 46.617472,43.0307616 C47.686904,43.0307616 48.543896,43.3290816 49.155904,43.9139696 C49.7652,44.4934336 50.07708,45.3766416 50.07708,46.5310496 C50.07708,47.0689296 49.999336,47.5697456 49.842944,48.0199376 C49.691072,48.4638016 49.419872,48.8434816 49.031152,49.1607856 C48.641528,49.4789936 48.10636,49.7294016 47.443728,49.9083936 C46.773864,50.0910016 45.916872,50.1832096 44.894448,50.1832096 L44.789584,50.1832096 L44.789584,53.4701536 L44.894448,53.4701536 C46.130216,53.4701536 47.128232,53.5677856 47.859568,53.7576256 C48.587288,53.9537936 49.149576,54.2177616 49.53468,54.5531456 C49.910744,54.8849136 50.165672,55.2871936 50.283192,55.7545616 C50.405232,56.2354896 50.469416,56.7806016 50.469416,57.3654896 C50.469416,57.8229136 50.381728,58.2866656 50.20816,58.7404736 C50.040016,59.1942816 49.77876,59.6101216 49.43072,59.9789536 C49.084488,60.3477856 48.645144,60.6524336 48.127152,60.8793376 C47.60916,61.1134736 46.993536,61.2282816 46.295648,61.2282816 C45.673696,61.2282816 45.134912,61.1369776 44.68472,60.9507536 C44.24176,60.7645296 43.844904,60.5213536 43.513136,60.2221296 C43.182272,59.9247136 42.8948,59.5802896 42.657048,59.1978976 C42.4202,58.8146016 42.18968,58.4123216 41.987184,58.0091376 L41.405008,57.4097856 C40.8834,57.1259296 40.176472,57.1458176 39.549096,57.4206336 L37.600072,58.2387536 L37.629904,58.3381936 C37.97252,59.4139536 38.391976,60.3749056 38.866576,61.2011616 C39.350216,62.0274176 39.942336,62.7379616 40.632992,63.3101936 C41.320032,63.8815216 42.142672,64.3190576 43.073792,64.6101456 C43.99768,64.9003296 45.101464,65.0494896 46.34356,65.0494896 C47.488024,65.0494896 48.587288,64.8804416 49.609712,64.5423456 C50.635752,64.2033456 51.549696,63.6989136 52.330752,63.0389936 C53.112712,62.3790736 53.7428,61.5564336 54.19932,60.5855376 C54.659456,59.6137376 54.893592,58.4864496 54.893592,57.2271776" id="Fill-5" fill="#FEFEFE"></path>
                        <path d="M72.3962072,61.8875688 C73.2116152,60.8280808 73.8615912,59.4747928 74.3253432,57.8566328 C74.7863832,56.2420888 75.0187112,54.3156648 75.0187112,52.1325048 C75.0187112,49.9357848 74.7863832,48.0030328 74.3253432,46.3984328 C73.8615912,44.7838888 73.2116152,43.4296968 72.3962072,42.3702088 C71.5735672,41.3107208 70.5918232,40.5115848 69.4753832,39.9908808 C68.3544232,39.4728888 67.1322152,39.2125368 65.8394952,39.2125368 C64.5458712,39.2125368 63.3281832,39.4728888 62.2207832,39.9908808 C61.1142872,40.5115848 60.1388712,41.3107208 59.3234632,42.3702088 C58.5116712,43.4296968 57.8716392,44.7838888 57.4142152,46.3984328 C56.9613112,48.0030328 56.7271752,49.9357848 56.7271752,52.1325048 C56.7271752,54.3156648 56.9613112,56.2420888 57.4142152,57.8566328 C57.8716392,59.4747928 58.5116712,60.8280808 59.3234632,61.8875688 C60.1388712,62.9506728 61.1142872,63.7498088 62.2207832,64.2678008 C63.3281832,64.7857928 64.5422552,65.0497608 65.8394952,65.0497608 C67.1322152,65.0497608 68.3571352,64.7857928 69.4753832,64.2678008 C70.5918232,63.7498088 71.5735672,62.9506728 72.3962072,61.8875688 M67.5652312,60.8651448 C66.4759112,61.4111608 65.2401432,61.4202008 64.1399752,60.8651448 C63.5957672,60.5948488 63.1085112,60.1075928 62.6881512,59.4232648 C62.2650792,58.7335128 61.9233672,57.7888328 61.6693432,56.6145368 C61.4180312,55.4357208 61.2905672,53.9260408 61.2905672,52.1325048 C61.2905672,50.3317368 61.4180312,48.8220568 61.6693432,47.6477608 C61.9233672,46.4725608 62.2650792,45.5251688 62.6881512,44.8381288 C63.1085112,44.1547048 63.5957672,43.6674488 64.1399752,43.3926328 C64.6850872,43.1187208 65.2537032,42.9795048 65.8394952,42.9795048 C66.4316152,42.9795048 67.0137912,43.1187208 67.5652312,43.3926328 C68.1139592,43.6674488 68.6084472,44.1547048 69.0342312,44.8381288 C69.4609192,45.5287848 69.8098632,46.4725608 70.0675032,47.6477608 C70.3242392,48.8220568 70.4598392,50.3317368 70.4598392,52.1325048 C70.4598392,53.9260408 70.3242392,55.4357208 70.0675032,56.6145368 C69.8098632,57.7852168 69.4609192,58.7298968 69.0342312,59.4232648 C68.6084472,60.1075928 68.1139592,60.5948488 67.5652312,60.8651448" id="Fill-7" fill="#FEFEFE"></path>
                        <mask id="mask-2" fill="white">
                            <use xlink:href="#path-1"></use>
                        </mask>
                        <g id="Clip-10"></g>
                        <polygon id="Fill-9" fill="#FEFEFE" mask="url(#mask-2)" points="55.773184 33.685752 56.575936 33.685752 56.575936 18.856536 55.773184 18.856536"></polygon>
                        <polygon id="Fill-11" fill="#FEFEFE" mask="url(#mask-2)" points="55.773184 15.881472 56.575936 15.881472 56.575936 8.918864 55.773184 8.918864"></polygon>
                        <polygon id="Fill-12" fill="#FEFEFE" mask="url(#mask-2)" points="64.8525984 35.3122288 69.7839184 21.5388848 69.8417744 21.3797808 69.0869344 21.1022528 64.1013744 35.0347008"></polygon>
                        <polygon id="Fill-13" fill="#FEFEFE" mask="url(#mask-2)" points="70.090284 18.3026552 70.841508 18.5837992 73.183772 12.0406472 72.432548 11.7631192"></polygon>
                        <polygon id="Fill-14" fill="#FEFEFE" mask="url(#mask-2)" points="71.4718672 39.1975304 72.0847792 39.7191384 81.3525872 28.4914584 81.4574512 28.3594744 80.8472512 27.8378664 71.5731152 39.0718744"></polygon>
                        <polygon id="Fill-15" fill="#FEFEFE" mask="url(#mask-2)" points="87.6379184 20.877428 87.7463984 20.748156 87.1298704 20.227452 82.8349664 25.429972 82.7291984 25.55834 83.3421104 26.079948"></polygon>
                        <polygon id="Fill-16" fill="#FEFEFE" mask="url(#mask-2)" points="77.397316 46.375652 90.030716 38.962852 89.630244 38.258636 76.998652 45.67234"></polygon>
                        <polygon id="Fill-17" fill="#FEFEFE" mask="url(#mask-2)" points="92.5658032 37.4734216 98.4969472 33.9903096 98.0964752 33.2897096 92.1671392 36.7664936"></polygon>
                        <polygon id="Fill-18" fill="#FEFEFE" mask="url(#mask-2)" points="80.1737712 53.647428 80.0110512 53.67726 80.1502672 54.480012 94.3539152 51.92802 94.5121152 51.899996 94.3774192 51.102668"></polygon>
                        <polygon id="Fill-19" fill="#FEFEFE" mask="url(#mask-2)" points="97.2614504 50.5822352 97.3961464 51.3886032 103.980882 50.2034592 104.142698 50.1763392 104.004386 49.3744912"></polygon>
                        <polygon id="Fill-20" fill="#FEFEFE" mask="url(#mask-2)" points="80.0096048 63.0484856 94.2123488 65.5941496 94.3750688 65.6212696 94.5133808 64.8185176 80.3106368 62.2737576 80.1479168 62.2457336"></polygon>
                        <polygon id="Fill-21" fill="#FEFEFE" mask="url(#mask-2)" points="97.2614504 66.1374536 104.004386 67.3497176 104.142698 66.5469656 97.3961464 65.3356056"></polygon>
                        <polygon id="Fill-22" fill="#FEFEFE" mask="url(#mask-2)" points="76.9973864 71.0520496 89.6298824 78.4648496 90.0285464 77.7642496 77.3960504 70.3478336"></polygon>
                        <polygon id="Fill-23" fill="#FEFEFE" mask="url(#mask-2)" points="22.3168672 77.7622608 22.7164352 78.4628608 35.3489312 71.0500608 34.9502672 70.3494608"></polygon>
                        <polygon id="Fill-24" fill="#FEFEFE" mask="url(#mask-2)" points="17.9928544 64.7911264 17.8301344 64.8182464 17.9702544 65.6237104 32.1729984 63.0753344 32.3311984 63.0473104 32.1965024 62.2463664"></polygon>
                        <polygon id="Fill-25" fill="#FEFEFE" mask="url(#mask-2)" points="8.3667008 66.5187608 8.2003648 66.5449768 8.3431968 67.3477288 14.9270288 66.1662008 15.0861328 66.1390808 14.9469168 65.3372328"></polygon>
                        <polygon id="Fill-26" fill="#FEFEFE" mask="url(#mask-2)" points="17.8313096 51.9020752 32.0313416 54.4468352 32.1940616 54.4748592 32.3359896 53.6757232 18.1296296 51.1300592 17.9705256 51.0993232"></polygon>
                        <polygon id="Fill-27" fill="#FEFEFE" mask="url(#mask-2)" points="8.205156 50.1770624 14.948092 51.3857104 15.082788 50.5838624 8.502572 49.4023344 8.339852 49.3752144"></polygon>
                        <polygon id="Fill-28" fill="#FEFEFE" mask="url(#mask-2)" points="22.3168672 38.9617672 34.9502672 46.3745672 35.3489312 45.6712552 22.7164352 38.2584552"></polygon>
                        <polygon id="Fill-29" fill="#FEFEFE" mask="url(#mask-2)" points="20.1796304 36.7680304 14.2484864 33.2885344 13.8498224 33.9927504 19.7800624 37.4749584"></polygon>
                        <polygon id="Fill-30" fill="#FEFEFE" mask="url(#mask-2)" points="40.8744504 39.1975304 31.4990664 27.8378664 30.8861544 28.3594744 40.2615384 39.7191384"></polygon>
                        <polygon id="Fill-31" fill="#FEFEFE" mask="url(#mask-2)" points="29.615944 25.5580688 25.215272 20.2271808 24.60236 20.7515008 29.003032 26.0796768"></polygon>
                        <polygon id="Fill-32" fill="#FEFEFE" mask="url(#mask-2)" points="48.2459376 35.0350624 43.2567616 21.1026144 42.5046336 21.3801424 47.4947136 35.3125904"></polygon>
                        <polygon id="Fill-33" fill="#FEFEFE" mask="url(#mask-2)" points="39.1627264 12.042184 41.5022784 18.58172 42.2571184 18.304192 39.9103344 11.76104"></polygon>
                        <polygon id="Fill-34" fill="#FEFEFE" mask="url(#mask-2)" points="61.334592 27.4905496 62.126496 27.6053576 64.24276 12.5157896 63.453568 12.4045976"></polygon>
                        <polygon id="Fill-35" fill="#FEFEFE" mask="url(#mask-2)" points="72.1154248 31.5311584 79.1828968 18.0895824 78.4750648 17.7044784 71.4112088 31.1451504"></polygon>
                        <polygon id="Fill-36" fill="#FEFEFE" mask="url(#mask-2)" points="90.8107776 27.9116328 79.6463776 38.0870568 80.1815456 38.6927368 91.3423296 28.5173128"></polygon>
                        <polygon id="Fill-37" fill="#FEFEFE" mask="url(#mask-2)" points="85.3523352 48.2242416 99.2648952 42.5453136 98.9674792 41.7904736 85.0549192 47.4694016"></polygon>
                        <polygon id="Fill-38" fill="#FEFEFE" mask="url(#mask-2)" points="87.1408992 58.1620944 86.9745632 58.1693264 87.0025872 58.9775024 101.824571 58.4830144 101.990907 58.4803024 101.962883 57.6639904"></polygon>
                        <polygon id="Fill-39" fill="#FEFEFE" mask="url(#mask-2)" points="85.1846432 68.8891392 84.9378512 69.6611552 99.0312112 74.3456832 99.1876032 74.3999232 99.4352992 73.6279072 85.3401312 68.9442832"></polygon>
                        <polygon id="Fill-40" fill="#FEFEFE" mask="url(#mask-2)" points="27.2923928 69.2537224 26.9940728 68.4988824 13.2342888 74.1181464 13.0788008 74.1814264 13.3762168 74.9335544 27.1396168 69.3179064"></polygon>
                        <polygon id="Fill-41" fill="#FEFEFE" mask="url(#mask-2)" points="10.520752 58.241556 10.354416 58.245172 10.381536 59.056964 25.20352 58.559764 25.369856 58.556148 25.342736 57.743452"></polygon>
                        <polygon id="Fill-42" fill="#FEFEFE" mask="url(#mask-2)" points="27.1608608 47.8349792 27.4076528 47.0629632 13.3170048 42.3784352 13.1579008 42.3241952 12.9102048 43.0962112 27.0053728 47.7798352"></polygon>
                        <polygon id="Fill-43" fill="#FEFEFE" mask="url(#mask-2)" points="20.6563096 28.975008 32.4535096 38.382032 32.9434776 37.742 21.1507976 28.334976"></polygon>
                        <polygon id="Fill-44" fill="#FEFEFE" mask="url(#mask-2)" points="41.2850472 30.9123704 33.3641992 17.9716104 32.6834872 18.4019144 40.6052392 31.3426744"></polygon>
                        <polygon id="Fill-45" fill="#FEFEFE" mask="url(#mask-2)" points="51.4187968 27.392104 48.3316368 12.477912 47.5469648 12.644248 50.6341248 27.557536"></polygon>
                        <polygon id="Fill-46" fill="#FEFEFE" mask="url(#mask-2)" points="55.773184 6.177032 56.575936 6.177032 56.575936 0.45652 55.773184 0.45652"></polygon>
                        <polygon id="Fill-47" fill="#FEFEFE" mask="url(#mask-2)" points="73.3531816 9.1876232 74.1044056 9.4651512 76.0335416 4.0836392 75.2823176 3.8088232"></polygon>
                        <polygon id="Fill-48" fill="#FEFEFE" mask="url(#mask-2)" points="92.99222 14.3922224 93.099796 14.2638544 92.484172 13.7422464 88.866364 18.1257424 89.478372 18.6473504"></polygon>
                        <polygon id="Fill-49" fill="#FEFEFE" mask="url(#mask-2)" points="100.431688 31.9187032 100.831256 32.6229192 105.70924 29.7626632 105.30696 29.0557352"></polygon>
                        <polygon id="Fill-50" fill="#FEFEFE" mask="url(#mask-2)" points="106.659886 48.901428 106.798198 49.69966 112.34243 48.704356 112.207734 47.90522"></polygon>
                        <polygon id="Fill-51" fill="#FEFEFE" mask="url(#mask-2)" points="106.659886 67.8254024 112.204118 68.8179944 112.346046 68.0188584 106.798198 67.0199384"></polygon>
                        <polygon id="Fill-52" fill="#FEFEFE" mask="url(#mask-2)" points="0.16272 67.9869472 0 68.0167792 0.142832 68.8195312 5.520728 67.8522512 5.689776 67.8206112 5.544232 67.0223792"></polygon>
                        <polygon id="Fill-53" fill="#FEFEFE" mask="url(#mask-2)" points="0.0011752 48.7062544 5.3826872 49.6699184 5.5454072 49.6979424 5.6846232 48.9024224 0.3022072 47.9369504 0.1394872 47.9035024"></polygon>
                        <polygon id="Fill-54" fill="#FEFEFE" mask="url(#mask-2)" points="11.91472 31.9187032 7.036736 29.0557352 6.638072 29.7626632 11.516056 32.6229192"></polygon>
                        <polygon id="Fill-55" fill="#FEFEFE" mask="url(#mask-2)" points="23.4813096 18.126556 19.8589816 13.739444 19.2496856 14.264668 22.8683976 18.65178"></polygon>
                        <polygon id="Fill-56" fill="#FEFEFE" mask="url(#mask-2)" points="36.3112392 4.0849952 38.2412792 9.4637952 38.9925032 9.1889792 37.0624632 3.8074672"></polygon>
                        <path d="M17.7227392,95.438896 L15.6010512,89.498712 L13.4730352,95.438896 L17.7227392,95.438896 Z M21.1199712,100.193032 L19.4041792,100.193032 L18.2181312,96.820208 L12.9848752,96.820208 L11.7979232,100.193032 L10.1652992,100.193032 L14.5695872,88.092088 L16.7147792,88.092088 L21.1199712,100.193032 Z" id="Fill-57" fill="#FEFEFE" mask="url(#mask-2)"></path>
                        <path d="M31.7488416,96.7392096 C31.7488416,97.2101936 31.6394576,97.6766576 31.4197856,98.1367936 C31.2001136,98.5978336 30.8927536,98.9874576 30.4968016,99.3074736 C30.0637856,99.6537056 29.5584496,99.9240016 28.9807936,100.119266 C28.4049456,100.31453 27.7097696,100.412162 26.8970736,100.412162 C26.0247136,100.412162 25.2409456,100.330802 24.5439616,100.168082 C23.8487856,100.005362 23.1400496,99.7648976 22.4195616,99.4448816 L22.4195616,97.4298656 L22.5334656,97.4298656 C23.1454736,97.9388176 23.8524016,98.3320576 24.6542496,98.6077776 C25.4560976,98.8844016 26.2091296,99.0218096 26.9133456,99.0218096 C27.9104576,99.0218096 28.6860896,98.8355856 29.2420496,98.4613296 C29.7971056,98.0879776 30.0746336,97.5889696 30.0746336,96.9670176 C30.0746336,96.4300416 29.9435536,96.0349936 29.6804896,95.7800656 C29.4174256,95.5251376 29.0178576,95.3271616 28.4817856,95.1870416 C28.0758896,95.0785616 27.6347376,94.9890656 27.1610416,94.9185536 C26.6864416,94.8480416 26.1847216,94.7594496 25.6540736,94.6500656 C24.5810256,94.4222576 23.7855056,94.0344416 23.2684176,93.4839056 C22.7513296,92.9342736 22.4927856,92.2183056 22.4927856,91.3341936 C22.4927856,90.3217136 22.9203776,89.4909376 23.7773696,88.8445776 C24.6325536,88.1973136 25.7191616,87.8727776 27.0353856,87.8727776 C27.8860496,87.8727776 28.6662016,87.9541376 29.3758416,88.1168576 C30.0854816,88.2795776 30.7137616,88.4793616 31.2606816,88.7180176 L31.2606816,90.6191296 L31.1476816,90.6191296 C30.6866416,90.2295056 30.0809616,89.9058736 29.3306416,89.6482336 C28.5803216,89.3914976 27.8128256,89.2622256 27.0272496,89.2622256 C26.1657376,89.2622256 25.4741776,89.4421216 24.9507616,89.7992016 C24.4273456,90.1571856 24.1660896,90.6173216 24.1660896,91.1805136 C24.1660896,91.6840416 24.2971696,92.0799936 24.5566176,92.3665616 C24.8169696,92.6540336 25.2743936,92.8737056 25.9297936,93.0255776 C26.2769296,93.1015136 26.7696096,93.1928176 27.4087376,93.3012976 C28.0478656,93.4097776 28.5902656,93.5209696 29.0341296,93.6339696 C29.9336096,93.8735296 30.6107056,94.2342256 31.0663216,94.7160576 C31.5210336,95.1978896 31.7488416,95.8722736 31.7488416,96.7392096" id="Fill-58" fill="#FEFEFE" mask="url(#mask-2)"></path>
                        <path d="M43.1256816,96.7392096 C43.1256816,97.2101936 43.0162976,97.6766576 42.7966256,98.1367936 C42.5778576,98.5978336 42.2704976,98.9874576 41.8745456,99.3074736 C41.4415296,99.6537056 40.9352896,99.9240016 40.3585376,100.119266 C39.7817856,100.31453 39.0866096,100.412162 38.2748176,100.412162 C37.4024576,100.412162 36.6177856,100.330802 35.9217056,100.168082 C35.2256256,100.005362 34.5177936,99.7648976 33.7973056,99.4448816 L33.7973056,97.4298656 L33.9112096,97.4298656 C34.5223136,97.9388176 35.2301456,98.3320576 36.0310896,98.6077776 C36.8329376,98.8844016 37.5859696,99.0218096 38.2901856,99.0218096 C39.2872976,99.0218096 40.0629296,98.8355856 40.6188896,98.4613296 C41.1739456,98.0879776 41.4514736,97.5889696 41.4514736,96.9670176 C41.4514736,96.4300416 41.3203936,96.0349936 41.0582336,95.7800656 C40.7951696,95.5251376 40.3946976,95.3271616 39.8595296,95.1870416 C39.4536336,95.0785616 39.0124816,94.9890656 38.5387856,94.9185536 C38.0641856,94.8480416 37.5624656,94.7594496 37.0309136,94.6500656 C35.9578656,94.4222576 35.1632496,94.0344416 34.6461616,93.4839056 C34.1290736,92.9342736 33.8705296,92.2183056 33.8705296,91.3341936 C33.8705296,90.3217136 34.2972176,89.4909376 35.1542096,88.8445776 C36.0102976,88.1973136 37.0960016,87.8727776 38.4122256,87.8727776 C39.2637936,87.8727776 40.0430416,87.9541376 40.7526816,88.1168576 C41.4623216,88.2795776 42.0906016,88.4793616 42.6384256,88.7180176 L42.6384256,90.6191296 L42.5245216,90.6191296 C42.0634816,90.2295056 41.4587056,89.9058736 40.7083856,89.6482336 C39.9580656,89.3914976 39.1896656,89.2622256 38.4040896,89.2622256 C37.5425776,89.2622256 36.8510176,89.4421216 36.3276016,89.7992016 C35.8050896,90.1571856 35.5438336,90.6173216 35.5438336,91.1805136 C35.5438336,91.6840416 35.6740096,92.0799936 35.9343616,92.3665616 C36.1938096,92.6540336 36.6521376,92.8737056 37.3066336,93.0255776 C37.6537696,93.1015136 38.1473536,93.1928176 38.7864816,93.3012976 C39.4256096,93.4097776 39.9671056,93.5209696 40.4118736,93.6339696 C41.3104496,93.8735296 41.9884496,94.2342256 42.4431616,94.7160576 C42.8987776,95.1978896 43.1256816,95.8722736 43.1256816,96.7392096" id="Fill-59" fill="#FEFEFE" mask="url(#mask-2)"></path>
                        <path d="M54.8202776,95.3329472 C54.8202776,96.2107312 54.7244536,96.9755152 54.5319016,97.6291072 C54.3393496,98.2817952 54.0238536,98.8250992 53.5854136,99.2581152 C53.1677656,99.6703392 52.6805096,99.9704672 52.1227416,100.160307 C51.5640696,100.350147 50.9140936,100.444163 50.1710056,100.444163 C49.4134536,100.444163 48.7526296,100.344723 48.1885336,100.144035 C47.6253416,99.9442512 47.1516456,99.6477392 46.7665416,99.2581152 C46.3271976,98.8142512 46.0126056,98.2781792 45.8200536,97.6498992 C45.6275016,97.0207152 45.5316776,96.2486992 45.5316776,95.3329472 L45.5316776,88.0919072 L47.1407976,88.0919072 L47.1407976,95.4143072 C47.1407976,96.0697072 47.1859976,96.5876992 47.2745896,96.9673792 C47.3640856,97.3461552 47.5141496,97.6896752 47.7256856,97.9988432 C47.9643416,98.3514032 48.2870696,98.6162752 48.6974856,98.7952672 C49.1060936,98.9733552 49.5978696,99.0628512 50.1710056,99.0628512 C50.7513736,99.0628512 51.2449576,98.9751632 51.6508536,98.7988832 C52.0567496,98.6235072 52.3821896,98.3568272 52.6253656,97.9988432 C52.8378056,97.6896752 52.9878696,97.3362112 53.0764616,96.9375472 C53.1668616,96.5397872 53.2111576,96.0452992 53.2111576,95.4549872 L53.2111576,88.0919072 L54.8202776,88.0919072 L54.8202776,95.3329472 Z" id="Fill-60" fill="#FEFEFE" mask="url(#mask-2)"></path>
                        <path d="M64.14106,91.4970944 C64.14106,91.1508624 64.080492,90.8425984 63.958452,90.5750144 C63.836412,90.3074304 63.633916,90.0814304 63.352772,89.8961104 C63.11954,89.7397184 62.842916,89.6303344 62.523804,89.5670544 C62.203788,89.5055824 61.827724,89.4739424 61.394708,89.4739424 L59.500828,89.4739424 L59.500828,94.0409504 L61.12622,94.0409504 C61.636076,94.0409504 62.07994,93.9966544 62.45962,93.9071584 C62.838396,93.8176624 63.16022,93.6513264 63.425996,93.4072464 C63.670076,93.1794384 63.849972,92.9181824 63.966588,92.6225744 C64.083204,92.3278704 64.14106,91.9527104 64.14106,91.4970944 L64.14106,91.4970944 Z M67.903508,100.19267 L65.815268,100.19267 L61.76806,95.3824864 L59.500828,95.3824864 L59.500828,100.19267 L57.891708,100.19267 L57.891708,88.0917264 L61.280804,88.0917264 C62.01214,88.0917264 62.621436,88.1396384 63.108692,88.2354624 C63.595948,88.3294784 64.035292,88.4994304 64.424916,88.7426064 C64.86426,89.0192304 65.206876,89.3672704 65.453668,89.7867264 C65.70046,90.2061824 65.823404,90.7386384 65.823404,91.3840944 C65.823404,92.2564544 65.603732,92.9859824 65.165292,93.5735824 C64.725948,94.1611824 64.122076,94.6050464 63.352772,94.9024624 L67.903508,100.19267 Z" id="Fill-61" fill="#FEFEFE" mask="url(#mask-2)"></path>
                        <polygon id="Fill-62" fill="#FEFEFE" mask="url(#mask-2)" points="77.436188 100.192761 69.463812 100.192761 69.463812 88.0918168 77.436188 88.0918168 77.436188 89.5228488 71.072932 89.5228488 71.072932 92.8378168 77.436188 92.8378168 77.436188 94.2679448 71.072932 94.2679448 71.072932 98.7626328 77.436188 98.7626328"></polygon>
                        <path d="M89.0972456,95.3329472 C89.0972456,96.2107312 89.0014216,96.9755152 88.8088696,97.6291072 C88.6163176,98.2817952 88.3008216,98.8250992 87.8623816,99.2581152 C87.4447336,99.6703392 86.9574776,99.9704672 86.3997096,100.160307 C85.8410376,100.350147 85.1910616,100.444163 84.4479736,100.444163 C83.6904216,100.444163 83.0295976,100.344723 82.4655016,100.144035 C81.9023096,99.9442512 81.4286136,99.6477392 81.0435096,99.2581152 C80.6041656,98.8142512 80.2895736,98.2781792 80.0970216,97.6498992 C79.9044696,97.0207152 79.8086456,96.2486992 79.8086456,95.3329472 L79.8086456,88.0919072 L81.4177656,88.0919072 L81.4177656,95.4143072 C81.4177656,96.0697072 81.4629656,96.5876992 81.5515576,96.9673792 C81.6410536,97.3461552 81.7911176,97.6896752 82.0026536,97.9988432 C82.2413096,98.3514032 82.5640376,98.6162752 82.9744536,98.7952672 C83.3830616,98.9733552 83.8748376,99.0628512 84.4479736,99.0628512 C85.0283416,99.0628512 85.5219256,98.9751632 85.9278216,98.7988832 C86.3337176,98.6235072 86.6591576,98.3568272 86.9023336,97.9988432 C87.1147736,97.6896752 87.2648376,97.3362112 87.3534296,96.9375472 C87.4438296,96.5397872 87.4881256,96.0452992 87.4881256,95.4549872 L87.4881256,88.0919072 L89.0972456,88.0919072 L89.0972456,95.3329472 Z" id="Fill-63" fill="#FEFEFE" mask="url(#mask-2)"></path>
                        <path d="M98.4188416,91.4970944 C98.4188416,91.1508624 98.3582736,90.8425984 98.2353296,90.5750144 C98.1132896,90.3074304 97.9116976,90.0814304 97.6305536,89.8961104 C97.3973216,89.7397184 97.1206976,89.6303344 96.8015856,89.5670544 C96.4815696,89.5055824 96.1046016,89.4739424 95.6715856,89.4739424 L93.7777056,89.4739424 L93.7777056,94.0409504 L95.4030976,94.0409504 C95.9129536,94.0409504 96.3568176,93.9966544 96.7364976,93.9071584 C97.1161776,93.8176624 97.4380016,93.6513264 97.7037776,93.4072464 C97.9478576,93.1794384 98.1277536,92.9181824 98.2443696,92.6225744 C98.3609856,92.3278704 98.4188416,91.9527104 98.4188416,91.4970944 L98.4188416,91.4970944 Z M102.18129,100.19267 L100.09305,100.19267 L96.0458416,95.3824864 L93.7777056,95.3824864 L93.7777056,100.19267 L92.1694896,100.19267 L92.1694896,88.0917264 L95.5576816,88.0917264 C96.2899216,88.0917264 96.8983136,88.1396384 97.3864736,88.2354624 C97.8737296,88.3294784 98.3130736,88.4994304 98.7026976,88.7426064 C99.1420416,89.0192304 99.4846576,89.3672704 99.7305456,89.7867264 C99.9773376,90.2061824 100.100282,90.7386384 100.100282,91.3840944 C100.100282,92.2564544 99.8815136,92.9859824 99.4421696,93.5735824 C99.0028256,94.1611824 98.3998576,94.6050464 97.6305536,94.9024624 L102.18129,100.19267 Z" id="Fill-64" fill="#FEFEFE" mask="url(#mask-2)"></path>
                        <path d="M10.78472,110.021139 C10.78472,109.603491 10.711496,109.240987 10.565048,108.931819 C10.4186,108.623555 10.19712,108.371339 9.8988,108.176075 C9.638448,108.007931 9.341936,107.887699 9.00836,107.815379 C8.675688,107.742155 8.254424,107.704187 7.745472,107.704187 L6.152624,107.704187 L6.152624,112.539683 L7.509528,112.539683 C8.159504,112.539683 8.688344,112.482731 9.09424,112.366115 C9.500136,112.249499 9.830096,112.064179 10.085928,111.809251 C10.339952,111.547995 10.519848,111.275891 10.625616,110.987515 C10.731384,110.700947 10.78472,110.379123 10.78472,110.021139 M12.458928,109.980459 C12.458928,110.516531 12.364912,111.013731 12.177784,111.471155 C11.99156,111.929483 11.7294,112.326339 11.394016,112.662627 C10.976368,113.079371 10.483688,113.392155 9.915072,113.600979 C9.345552,113.808899 8.627776,113.913763 7.76084,113.913763 L6.152624,113.913763 L6.152624,118.423819 L4.543504,118.423819 L4.543504,106.322875 L7.826832,106.322875 C8.55184,106.322875 9.167464,106.385251 9.671896,106.506387 C10.17452,106.628427 10.622,106.819171 11.011624,107.079523 C11.472664,107.387787 11.827936,107.772891 12.081056,108.233027 C12.332368,108.693163 12.458928,109.276243 12.458928,109.980459" id="Fill-65" fill="#FEFEFE" mask="url(#mask-2)"></path>
                        <path d="M20.7225728,113.669864 L18.6017888,107.72968 L16.4728688,113.669864 L20.7225728,113.669864 Z M24.1198048,118.424 L22.4049168,118.424 L21.2188688,115.051176 L15.9856128,115.051176 L14.7986608,118.424 L13.1651328,118.424 L17.5703248,106.323056 L19.7155168,106.323056 L24.1198048,118.424 Z" id="Fill-66" fill="#FEFEFE" mask="url(#mask-2)"></path>
                        <path d="M31.8123928,109.728062 C31.8123928,109.38183 31.7518248,109.073566 31.6297848,108.805982 C31.5077448,108.538398 31.3052488,108.312398 31.0241048,108.127078 C30.7908728,107.970686 30.5142488,107.861302 30.1951368,107.798022 C29.8751208,107.73655 29.4981528,107.70491 29.0651368,107.70491 L27.1721608,107.70491 L27.1721608,112.271918 L28.7975528,112.271918 C29.3065048,112.271918 29.7512728,112.227622 30.1300488,112.138126 C30.5097288,112.04863 30.8315528,111.882294 31.0973288,111.638214 C31.3414088,111.410406 31.5213048,111.14915 31.6379208,110.853542 C31.7545368,110.558838 31.8123928,110.183678 31.8123928,109.728062 L31.8123928,109.728062 Z M35.5748408,118.423638 L33.4866008,118.423638 L29.4393928,113.613454 L27.1721608,113.613454 L27.1721608,118.423638 L25.5630408,118.423638 L25.5630408,106.322694 L28.9521368,106.322694 C29.6834728,106.322694 30.2918648,106.370606 30.7800248,106.46643 C31.2672808,106.560446 31.7066248,106.730398 32.0962488,106.973574 C32.5355928,107.250198 32.8782088,107.598238 33.1240968,108.017694 C33.3717928,108.43715 33.4938328,108.969606 33.4938328,109.615062 C33.4938328,110.487422 33.2750648,111.21695 32.8366248,111.80455 C32.3972808,112.39215 31.7934088,112.836014 31.0241048,113.13343 L35.5748408,118.423638 Z" id="Fill-67" fill="#FEFEFE" mask="url(#mask-2)"></path>
                        <polygon id="Fill-68" fill="#FEFEFE" mask="url(#mask-2)" points="45.2779248 107.754088 40.9549968 107.754088 40.9549968 118.424 39.3458768 118.424 39.3458768 107.754088 35.0220448 107.754088 35.0220448 106.323056 45.2779248 106.323056"></polygon>
                        <polygon id="Fill-69" fill="#FEFEFE" mask="url(#mask-2)" points="54.87506 118.423729 46.903588 118.423729 46.903588 106.322785 54.87506 106.322785 54.87506 107.753817 48.512708 107.753817 48.512708 111.068785 54.87506 111.068785 54.87506 112.498913 48.512708 112.498913 48.512708 116.993601 54.87506 116.993601"></polygon>
                        <polygon id="Fill-70" fill="#FEFEFE" mask="url(#mask-2)" points="66.6587904 118.423729 64.6681824 118.423729 58.9304944 107.599233 58.9304944 118.423729 57.4271424 118.423729 57.4271424 106.322785 59.9221824 106.322785 65.1554384 116.205313 65.1554384 106.322785 66.6587904 106.322785"></polygon>
                        <path d="M76.0201624,113.669864 L73.8993784,107.72968 L71.7704584,113.669864 L76.0201624,113.669864 Z M79.4173944,118.424 L77.7025064,118.424 L76.5164584,115.051176 L71.2832024,115.051176 L70.0962504,118.424 L68.4627224,118.424 L72.8679144,106.323056 L75.0131064,106.323056 L79.4173944,118.424 Z" id="Fill-71" fill="#FEFEFE" mask="url(#mask-2)"></path>
                        <polygon id="Fill-72" fill="#FEFEFE" mask="url(#mask-2)" points="85.5201176 118.423729 80.7415736 118.423729 80.7415736 117.188865 82.3262856 117.188865 82.3262856 107.558553 80.7415736 107.558553 80.7415736 106.322785 85.5201176 106.322785 85.5201176 107.558553 83.9354056 107.558553 83.9354056 117.188865 85.5201176 117.188865"></polygon>
                        <path d="M94.5080472,109.728062 C94.5080472,109.38183 94.4474792,109.073566 94.3254392,108.805982 C94.2033992,108.538398 94.0009032,108.312398 93.7197592,108.127078 C93.4865272,107.970686 93.2099032,107.861302 92.8907912,107.798022 C92.5707752,107.73655 92.1938072,107.70491 91.7607912,107.70491 L89.8678152,107.70491 L89.8678152,112.271918 L91.4932072,112.271918 C92.0021592,112.271918 92.4469272,112.227622 92.8257032,112.138126 C93.2053832,112.04863 93.5272072,111.882294 93.7929832,111.638214 C94.0370632,111.410406 94.2169592,111.14915 94.3335752,110.853542 C94.4501912,110.558838 94.5080472,110.183678 94.5080472,109.728062 L94.5080472,109.728062 Z M98.2704952,118.423638 L96.1822552,118.423638 L92.1350472,113.613454 L89.8678152,113.613454 L89.8678152,118.423638 L88.2586952,118.423638 L88.2586952,106.322694 L91.6477912,106.322694 C92.3791272,106.322694 92.9875192,106.370606 93.4756792,106.46643 C93.9629352,106.560446 94.4022792,106.730398 94.7919032,106.973574 C95.2312472,107.250198 95.5738632,107.598238 95.8197512,108.017694 C96.0674472,108.43715 96.1894872,108.969606 96.1894872,109.615062 C96.1894872,110.487422 95.9707192,111.21695 95.5322792,111.80455 C95.0929352,112.39215 94.4890632,112.836014 93.7197592,113.13343 L98.2704952,118.423638 Z" id="Fill-73" fill="#FEFEFE" mask="url(#mask-2)"></path>
                        <polygon id="Fill-74" fill="#FEFEFE" mask="url(#mask-2)" points="107.802271 118.423729 99.8307992 118.423729 99.8307992 106.322785 107.802271 106.322785 107.802271 107.753817 101.439919 107.753817 101.439919 111.068785 107.802271 111.068785 107.802271 112.498913 101.439919 112.498913 101.439919 116.993601 107.802271 116.993601"></polygon>
                    </g>
                </g>
            </g>
        </g>
    </g>
</svg>