<?xml version="1.0" encoding="UTF-8"?>
<svg width="15px" height="16px" viewBox="0 0 15 16" version="1.1" xmlns="http://www.w3.org/2000/svg" xmlns:xlink="http://www.w3.org/1999/xlink">
    <!-- Generator: Sketch 61.2 (89653) - https://sketch.com -->
    <title>Group 11</title>
    <desc>Created with Sketch.</desc>
    <g id="Page-1" stroke="none" stroke-width="1" fill="none" fill-rule="evenodd">
        <g id="01-ACCUEIL" transform="translate(-291.000000, -4877.000000)" fill="#7B7C82">
            <g id="ACTUALITÉS" transform="translate(0.000000, 4439.000000)">
                <g id="Rectangle-Copy-6" transform="translate(265.000000, 169.000000)">
                    <g id="Group-11" transform="translate(26.000000, 269.000000)">
                        <polygon id="Fill-1" points="2.727 -0.000272727273 2.727 4.09063636 4.09131818 4.09063636 4.09131818 2.72768182 10.9095 2.72768182 10.9095 1.36404545 4.09131818 1.36404545 4.09131818 -0.000272727273"></polygon>
                        <polygon id="Fill-2" points="2.72727273 9.54545455 4.09090909 9.54545455 4.09090909 8.18181818 2.72727273 8.18181818"></polygon>
                        <polygon id="Fill-3" points="5.45454545 9.54545455 6.81818182 9.54545455 6.81818182 8.18181818 5.45454545 8.18181818"></polygon>
                        <polygon id="Fill-4" points="8.18181818 9.54545455 9.54545455 9.54545455 9.54545455 8.18181818 8.18181818 8.18181818"></polygon>
                        <polygon id="Fill-5" points="10.9090909 9.54545455 12.2727273 9.54545455 12.2727273 8.18181818 10.9090909 8.18181818"></polygon>
                        <polygon id="Fill-6" points="2.72727273 12.2727273 4.09090909 12.2727273 4.09090909 10.9090909 2.72727273 10.9090909"></polygon>
                        <polygon id="Fill-7" points="5.45454545 12.2727273 6.81818182 12.2727273 6.81818182 10.9090909 5.45454545 10.9090909"></polygon>
                        <polygon id="Fill-8" points="8.18181818 12.2727273 9.54545455 12.2727273 9.54545455 10.9090909 8.18181818 10.9090909"></polygon>
                        <polygon id="Fill-9" points="10.9090909 12.2727273 12.2727273 12.2727273 12.2727273 10.9090909 10.9090909 10.9090909"></polygon>
                        <path d="M11.5909773,-0.000272727273 L11.5909773,4.09063636 L12.9546136,4.09063636 L12.9546136,2.72768182 L13.6364318,2.72768182 L13.6364318,4.77245455 L1.36370455,4.77245455 L1.36370455,2.72768182 L2.04552273,2.72768182 L2.04552273,1.36404545 L6.81818182e-05,1.36404545 L6.81818182e-05,4.77245455 L6.81818182e-05,6.13609091 L6.81818182e-05,15.6815455 L14.9993864,15.6815455 L14.9993864,1.36404545 L12.9546136,1.36404545 L12.9546136,-0.000272727273 L11.5909773,-0.000272727273 Z M1.36370455,14.3185909 L13.6364318,14.3185909 L13.6364318,6.13609091 L1.36370455,6.13609091 L1.36370455,14.3185909 Z" id="Fill-10"></path>
                    </g>
                </g>
            </g>
        </g>
    </g>
</svg>