<?xml version="1.0" encoding="UTF-8"?>
<svg width="42px" height="42px" viewBox="0 0 42 42" version="1.1" xmlns="http://www.w3.org/2000/svg" xmlns:xlink="http://www.w3.org/1999/xlink">
    <!-- Generator: Sketch 61.2 (89653) - https://sketch.com -->
    <title>Group</title>
    <desc>Created with Sketch.</desc>
    <defs>
        <polygon id="path-1" points="0.0674369748 0.045289916 10.8530672 0.045289916 10.8530672 17.394958 0.0674369748 17.394958"></polygon>
        <polygon id="path-3" points="0 0.101747899 5.25501681 0.101747899 5.25501681 8.42447899 0 8.42447899"></polygon>
    </defs>
    <g id="Symbols" stroke="none" stroke-width="1" fill="none" fill-rule="evenodd">
        <g id="FOOTER" transform="translate(-663.000000, -121.000000)">
            <g transform="translate(0.000000, -3.000000)" id="Group">
                <g transform="translate(664.000000, 125.000000)">
                    <circle id="Oval-Copy-4" stroke="#3A3636" cx="20" cy="20" r="20"></circle>
                    <g id="Group-13" transform="translate(12.000000, 10.000000)">
                        <g id="Group-3" transform="translate(4.033613, 3.956345)">
                            <mask id="mask-2" fill="white">
                                <use xlink:href="#path-1"></use>
                            </mask>
                            <g id="Clip-2"></g>
                            <path d="M0.0674369748,11.8642815 C0.727689076,12.6891555 1.39752101,13.7225168 1.74957983,14.3483571 C2.17827731,15.1616345 2.35436975,15.7109622 2.67390756,16.6907521 C2.86147059,17.2303739 3.03756303,17.3949958 3.41067227,17.3949958 C3.81831933,17.3949958 4.00386555,17.1193235 4.14743697,16.6907521 C4.44415966,15.7664244 4.67571429,15.0640714 5.03735294,14.3923487 C5.75117647,13.1063824 6.65445378,11.9618445 7.53289916,10.8635672 C7.77403361,10.5553739 9.3144958,8.7412563 10.0072689,7.30213866 C10.0072689,7.30213866 10.8530672,5.72902941 10.8530672,3.53007983 C10.8530672,1.47482773 10.0168487,0.045289916 10.0168487,0.045289916 L7.59794118,0.693945378 L6.12428571,4.56356723 L5.7607563,5.09171849 L5.6842437,5.19129832 L5.58466387,5.31180252 L5.42004202,5.50894538 L5.17903361,5.75007983 L3.87,6.81596218 L0.605294118,8.70671849 L0.0674369748,11.8642815 Z" id="Fill-1" fill="#34A853" mask="url(#mask-2)"></path>
                        </g>
                        <path d="M0.725268908,10.9942689 C1.52707563,12.8199832 3.05619328,14.4141429 4.10102521,15.8206134 L9.6317395,9.26813445 C9.6317395,9.26813445 8.85085714,10.2900252 7.44438655,10.2900252 C5.87127731,10.2900252 4.59665546,9.03657983 4.59665546,7.45401681 C4.59665546,6.36506723 5.24543697,5.61872269 5.24543697,5.61872269 L1.49468067,6.61956303 L0.725268908,10.9942689 Z" id="Fill-4" fill="#FBBC04"></path>
                        <path d="M9.6967563,0.340676471 C11.5320504,0.933995798 13.1051597,2.17597059 14.0504118,4.01315546 L9.62982353,9.27966807 C9.62982353,9.27966807 10.278479,8.52172689 10.278479,7.44437395 C10.278479,5.82727311 8.916,4.6082395 7.44247059,4.6082395 C6.04545378,4.6082395 5.24352101,5.62067647 5.24352101,5.62067647 L5.24352101,2.29836555 L9.6967563,0.340676471 Z" id="Fill-6" fill="#4285F4"></path>
                        <path d="M1.73570168,2.66011765 C2.83423109,1.35108403 4.75939916,7.56302521e-05 7.41944118,7.56302521e-05 C8.70540756,7.56302521e-05 9.68330672,0.340663866 9.68330672,0.340663866 L5.24355882,5.61877311 L2.09935714,5.61877311 L1.73570168,2.66011765 Z" id="Fill-8" fill="#1A73E8"></path>
                        <g id="Group-12" transform="translate(0.000000, 2.569790)">
                            <mask id="mask-4" fill="white">
                                <use xlink:href="#path-3"></use>
                            </mask>
                            <g id="Clip-11"></g>
                            <path d="M0.725268908,8.42447899 C0.725268908,8.42447899 -2.5210084e-05,6.98347059 -2.5210084e-05,4.90716807 C-2.5210084e-05,2.93977311 0.769386555,1.22321849 1.74715966,0.101747899 L5.25501681,3.05851261 L0.725268908,8.42447899 Z" id="Fill-10" fill="#EA4335" mask="url(#mask-4)"></path>
                        </g>
                    </g>
                </g>
            </g>
        </g>
    </g>
</svg>