<?xml version="1.0" encoding="UTF-8"?>
<svg width="28px" height="28px" viewBox="0 0 28 28" version="1.1" xmlns="http://www.w3.org/2000/svg" xmlns:xlink="http://www.w3.org/1999/xlink">
    <!-- Generator: Sketch 61.2 (89653) - https://sketch.com -->
    <title>Group</title>
    <desc>Created with Sketch.</desc>
    <g id="Symbols" stroke="none" stroke-width="1" fill="none" fill-rule="evenodd">
        <g id="HEADER" transform="translate(-1097.000000, -6.000000)">
            <g id="BANDEAU-HAUT">
                <g>
                    <g id="contact" transform="translate(1097.000000, 5.999500)">
                        <g id="Group" transform="translate(0.000000, 0.000500)">
                            <circle id="Oval" fill="#FFFFFF" cx="14" cy="14" r="14"></circle>
                            <path d="M19.25,18.3333333 L8.75,18.3333333 C8.428,18.3333333 8.16666667,18.072 8.16666667,17.75 L8.16666667,10.8544167 L12.7866667,15.3589167 C13.1349167,15.6984167 13.5910833,15.8681667 14.04725,15.8681667 C14.5034167,15.8681667 14.9601667,15.6984167 15.30725,15.3600833 L19.8333333,10.9489167 L19.8333333,17.75 C19.8333333,18.072 19.572,18.3333333 19.25,18.3333333 L19.25,18.3333333 Z M18.9635833,10.1666667 L14.4923333,14.52475 C14.252,14.7604167 13.8430833,14.7598333 13.6015833,14.5241667 L9.13266667,10.1666667 L18.9635833,10.1666667 Z M20.00075,9.17616667 L19.9908333,9.16566667 L19.9873333,9.16916667 C19.76275,9.063 19.51425,9 19.25,9 L8.75,9 C8.51083333,9 8.28333333,9.049 8.07566667,9.13591667 L8.057,9.11841667 L8.00333333,9.17441667 C7.41241667,9.45558333 7,10.0540833 7,10.75 L7,17.75 C7,18.7148333 7.78516667,19.5 8.75,19.5 L19.25,19.5 C20.2148333,19.5 21,18.7148333 21,17.75 L21,10.75 C21,10.05525 20.5893333,9.4585 20.00075,9.17616667 L20.00075,9.17616667 Z" id="Fill-1" fill="#1D1B1B"></path>
                        </g>
                    </g>
                </g>
            </g>
        </g>
    </g>
</svg>