<?xml version="1.0" encoding="UTF-8"?>
<svg width="99px" height="99px" viewBox="0 0 99 99" version="1.1" xmlns="http://www.w3.org/2000/svg" xmlns:xlink="http://www.w3.org/1999/xlink">
    <!-- Generator: Sketch 61.2 (89653) - https://sketch.com -->
    <title>LOGO</title>
    <desc>Created with Sketch.</desc>
    <defs>
        <linearGradient x1="36.1255977%" y1="39.3684728%" x2="50.7364332%" y2="49.0343684%" id="linearGradient-1">
            <stop stop-color="#1D1D1B" stop-opacity="0" offset="0%"></stop>
            <stop stop-color="#1D1D1B" offset="100%"></stop>
        </linearGradient>
        <linearGradient x1="36.125397%" y1="39.3680343%" x2="50.7953594%" y2="49.0339998%" id="linearGradient-2">
            <stop stop-color="#1D1D1B" stop-opacity="0" offset="0%"></stop>
            <stop stop-color="#1D1D1B" offset="100%"></stop>
        </linearGradient>
    </defs>
    <g id="Symbols" stroke="none" stroke-width="1" fill="none" fill-rule="evenodd">
        <g id="HEADER" transform="translate(-265.000000, 0.000000)" fill-rule="nonzero">
            <g id="LOGO">
                <g transform="translate(265.000000, 0.000000)">
                    <rect id="Rectangle" fill="#003697" x="0" y="0" width="98.7704348" height="98.7704348"></rect>
                    <path d="M23.4586957,84.4943478 L22.023913,84.4943478 L21.6078261,85.4843478 L21.2921739,85.4843478 L22.6121739,82.3278261 L22.8991304,82.3278261 L24.2191304,85.4843478 L23.9034783,85.4843478 L23.4586957,84.4943478 Z M23.3295652,84.1930435 L22.7126087,82.7582609 L22.0956522,84.1930435 L23.3295652,84.1930435 Z" id="Shape" fill="#FFFFFF"></path>
                    <path d="M27.5621739,85.0395652 L27.7773913,84.8243478 C27.9940527,85.0586045 28.2913752,85.2021395 28.6095652,85.226087 C29.04,85.226087 29.2982609,85.0252174 29.2982609,84.7095652 C29.2982609,83.9634783 27.5765217,84.0782609 27.5765217,83.1026087 C27.5765217,82.6721739 27.9065217,82.2847826 28.5521739,82.2847826 C28.9547612,82.3084043 29.33375,82.4825343 29.613913,82.7726087 L29.3986957,82.9878261 C29.1784966,82.7502902 28.875432,82.6064629 28.5521739,82.586087 C28.136087,82.586087 27.8778261,82.7869565 27.8778261,83.1026087 C27.8778261,83.8486957 29.5995652,83.733913 29.5995652,84.7095652 C29.5995652,85.14 29.2695652,85.5273913 28.6095652,85.5273913 C28.2116787,85.5016262 27.83793,85.3275515 27.5621739,85.0395652 L27.5621739,85.0395652 Z" id="Path" fill="#FFFFFF"></path>
                    <path d="M33.2008696,85.0395652 L33.416087,84.8243478 C33.636286,85.0618837 33.9393506,85.205711 34.2626087,85.226087 C34.6786957,85.226087 34.9369565,85.0252174 34.9369565,84.7095652 C34.9369565,83.9634783 33.2152174,84.0782609 33.2152174,83.1026087 C33.2152174,82.6721739 33.5595652,82.2847826 34.2052174,82.2847826 C34.6031039,82.3105477 34.9768526,82.4846225 35.2526087,82.7726087 L35.0373913,82.9878261 C34.825381,82.747362 34.5253751,82.6025315 34.2052174,82.586087 C33.7747826,82.586087 33.5165217,82.7869565 33.5165217,83.1026087 C33.5165217,83.8486957 35.2382609,83.733913 35.2382609,84.7095652 C35.2382609,85.14 34.9082609,85.5273913 34.2626087,85.5273913 C33.8600214,85.5037696 33.4810327,85.3296396 33.2008696,85.0395652 Z" id="Path" fill="#FFFFFF"></path>
                    <path d="M38.9543478,84.2791304 L38.9543478,82.3278261 L39.27,82.3278261 L39.27,84.2791304 C39.2250029,84.6426084 39.3936425,84.9994444 39.7030429,85.1954352 C40.0124433,85.391426 40.407122,85.391426 40.7165223,85.1954352 C41.0259227,84.9994444 41.1945623,84.6426084 41.1495652,84.2791304 L41.1495652,82.3278261 L41.4652174,82.3278261 L41.4652174,84.2791304 C41.3965266,84.9207584 40.855077,85.4073359 40.2097826,85.4073359 C39.5644882,85.4073359 39.0230387,84.9207584 38.9543478,84.2791304 L38.9543478,84.2791304 Z" id="Path" fill="#FFFFFF"></path>
                    <path d="M45.1956522,82.3278261 L46.2717391,82.3278261 C47.0034783,82.3278261 47.433913,82.7582609 47.433913,83.3034783 C47.433913,83.7301253 47.144389,84.1023705 46.7308696,84.2073913 L47.433913,85.4843478 L47.103913,85.4843478 L46.443913,84.2791304 L45.5113043,84.2791304 L45.5113043,85.47 L45.1956522,85.47 L45.1956522,82.3278261 Z M46.2717391,83.9921739 C46.7882609,83.9921739 47.1182609,83.6908696 47.1182609,83.3034783 C47.1002777,83.0986664 47.0001276,82.9098644 46.8406414,82.7801129 C46.6811552,82.6503614 46.4759259,82.5907192 46.2717391,82.6147826 L45.5113043,82.6147826 L45.5113043,84.0495652 L46.2717391,83.9921739 Z" id="Shape" fill="#FFFFFF"></path>
                    <path d="M53.0869565,84.4943478 L51.6521739,84.4943478 L51.2504348,85.4843478 L50.9347826,85.4843478 L52.2404348,82.3278261 L52.5417391,82.3278261 L53.8617391,85.4843478 L53.546087,85.4843478 L53.0869565,84.4943478 Z M52.9721739,84.1930435 L52.3552174,82.7582609 L51.7382609,84.1930435 L52.9721739,84.1930435 Z" id="Shape" fill="#FFFFFF"></path>
                    <polygon id="Path" fill="#FFFFFF" points="59.7443478 82.3278261 59.7443478 85.4843478 59.4286957 85.4843478 57.663913 82.8013043 57.663913 85.4843478 57.3913043 85.4843478 57.3913043 82.3278261 57.7069565 82.3278261 59.4717391 85.0108696 59.4717391 82.3278261"></polygon>
                    <path d="M63.36,83.906087 C63.3277555,83.4845386 63.4741262,83.0688407 63.7633734,82.7604923 C64.0526207,82.4521438 64.4581225,82.2795247 64.8808696,82.2847826 C65.4417076,82.2642233 65.9630475,82.5725426 66.2152174,83.073913 L66,83.2173913 C65.809599,82.8118317 65.4006271,82.5541233 64.9526087,82.5573913 C64.2981563,82.6541469 63.8134124,83.2158253 63.8134124,83.8773913 C63.8134124,84.5389573 64.2981563,85.1006357 64.9526087,85.1973913 C65.4016609,85.2043169 65.8124523,84.945462 66,84.5373913 L66.2869565,84.7095652 C66.0347866,85.2109357 65.5134467,85.5192549 64.9526087,85.4986957 C64.5229539,85.5240367 64.1029763,85.3643989 63.7986365,85.0600592 C63.4942967,84.7557194 63.334659,84.3357418 63.36,83.906087 Z" id="Path" fill="#FFFFFF"></path>
                    <polygon id="Path" fill="#FFFFFF" points="70.2182609 82.6291304 70.2182609 83.7195652 71.2082609 83.7195652 71.2082609 84.0352174 70.2182609 84.0352174 70.2182609 85.1686957 71.9830435 85.1686957 71.9830435 85.4843478 69.9026087 85.4843478 69.9026087 82.3278261 71.9830435 82.3278261 71.9830435 82.6291304"></polygon>
                    <path d="M75.4695652,85.0395652 L75.6847826,84.8243478 C75.8987374,85.0622355 76.1976068,85.2065173 76.5169565,85.226087 C76.9473913,85.226087 77.2056522,85.0252174 77.2056522,84.7095652 C77.2056522,83.9634783 75.483913,84.0782609 75.483913,83.1026087 C75.483913,82.6721739 75.813913,82.2847826 76.4595652,82.2847826 C76.8621525,82.3084043 77.2411413,82.4825343 77.5213043,82.7726087 L77.306087,82.9878261 C77.0858879,82.7502902 76.7828233,82.6064629 76.4595652,82.586087 C76.0434783,82.586087 75.7852174,82.7869565 75.7852174,83.1026087 C75.7852174,83.8486957 77.5069565,83.733913 77.5069565,84.7095652 C77.5069565,85.14 77.1769565,85.5273913 76.5169565,85.5273913 C76.11907,85.5016262 75.7453213,85.3275515 75.4695652,85.0395652 L75.4695652,85.0395652 Z" id="Path" fill="#FFFFFF"></path>
                    <path d="M21.3208696,53.2304348 L27.2608696,53.2304348 C31.2208696,53.2304348 33.6026087,55.6408696 33.6026087,58.6252174 C33.6026087,61.6095652 31.1778261,64.0343478 27.2608696,64.0343478 L23.7026087,64.0343478 L23.7026087,70.0604348 L21.3208696,70.0604348 L21.3208696,53.2304348 Z M27.2178261,61.8391304 C29.613913,61.8391304 31.1204348,60.4904348 31.1204348,58.6826087 C31.1204348,56.8747826 29.613913,55.526087 27.2178261,55.526087 L23.7026087,55.526087 L23.7026087,61.8391304 L27.2178261,61.8391304 Z" id="Shape" fill="#FFFFFF"></path>
                    <path d="M45.453913,65.34 L38.1365217,65.34 L36.2569565,70.0604348 L33.746087,70.0604348 L40.676087,53.2304348 L42.9286957,53.2304348 L49.8443478,70.0604348 L47.3478261,70.0604348 L45.453913,65.34 Z M44.4782609,62.9582609 L41.7952174,56.1 L39.0691304,62.9582609 L44.4782609,62.9582609 Z" id="Shape" fill="#FFFFFF"></path>
                    <polygon id="Path" fill="#FFFFFF" points="56.7169565 61.6956522 56.7169565 70.0173913 54.3352174 70.0173913 54.3352174 61.6956522 48.596087 53.1873913 51.2934783 53.1873913 55.5117391 59.4573913 59.7156522 53.1873913 62.4847826 53.1873913"></polygon>
                    <path d="M73.173913,65.34 L65.8565217,65.34 L63.9769565,70.0604348 L61.3943478,70.0604348 L68.3243478,53.2304348 L70.5769565,53.2304348 L77.4782609,70.0604348 L74.9817391,70.0604348 L73.173913,65.34 Z M72.2556522,62.9582609 L69.4434783,56.1 L66.7173913,62.9582609 L72.2556522,62.9582609 Z" id="Shape" fill="#FFFFFF"></path>
                    <path d="M51.2073913,41.006087 C50.5723749,41.006087 49.9831125,40.675666 49.6521017,40.1337456 C49.3210909,39.5918253 49.2960795,38.9166652 49.586087,38.3517391 L54.5217391,28.4086957 C54.9310212,27.5964722 54.9310212,26.6383104 54.5217391,25.826087 L49.5573913,15.9404348 C49.2683957,15.3607485 49.3008323,14.6726349 49.6430763,14.1227043 C49.9853203,13.5727737 50.5883649,13.2397724 51.236087,13.2430435 L58.41,13.2430435 C59.4236627,13.2276425 60.3603644,13.7819039 60.8347826,14.6778261 L66.4447826,25.8547826 C66.8331732,26.6163855 66.8331732,27.5179623 66.4447826,28.2795652 L60.8347826,39.4565217 C60.3603644,40.3524439 59.4236627,40.9067053 58.41,40.8913043 L51.2073913,41.006087 Z" id="Path" fill="#FFFFFF"></path>
                    <path d="M62.7,18.4082609 L60.8491304,14.7352174 C60.3747123,13.8392952 59.4380105,13.2850338 58.4243478,13.3004348 L53.9047826,13.3004348 C53.2734783,15.2517391 52.383913,18.1786957 51.7526087,20.2734783 L54.5217391,25.826087 C54.8900269,26.5659964 54.9214006,27.4287738 54.6078261,28.1934783 L56.1430435,29.6282609 L62.2408696,22.2821739 L62.7,18.4082609 Z" id="Path" fill="url(#linearGradient-1)" opacity="0.25" style="mix-blend-mode: multiply;"></path>
                    <path d="M66.4591304,25.9121739 L62.1547826,17.4613043 L60.72,14.7352174 C60.2455818,13.8392952 59.3088801,13.2850338 58.2952174,13.3004348 C61.4230435,14.0178261 60.2321739,16.8156522 59.9021739,17.5330435 L54.5217391,28.4086957 L54.5217391,28.4086957 L49.5430435,38.3517391 C49.253036,38.9166652 49.2780474,39.5918253 49.6090582,40.1337456 C49.940069,40.675666 50.5293314,41.0063998 51.1643478,41.006087 L58.3382609,41.006087 C59.3519235,41.021488 60.2886253,40.4672266 60.7630435,39.5713043 L66.3730435,28.3943478 C66.8084629,27.6315375 66.8406555,26.7033175 66.4591304,25.9121739 Z" id="Path" fill="#FFFFFF"></path>
                    <path d="M33.8465217,41.006087 C33.2122715,41.0030776 32.6244652,40.6730151 32.291727,40.1330451 C31.9589887,39.5930751 31.9284197,38.9196339 32.2108696,38.3517391 L37.203913,28.4086957 C37.6131951,27.5964722 37.6131951,26.6383104 37.203913,25.826087 L32.2395652,15.9404348 C31.9517168,15.3630347 31.982698,14.6778801 32.3214828,14.128815 C32.6602676,13.57975 33.2587428,13.2447511 33.903913,13.2428487 L41.0778261,13.2428487 C42.0906116,13.2309349 43.0257268,13.7842575 43.5026087,14.6778261 L49.1126087,25.8547826 C49.4852938,26.6200827 49.4852938,27.5142652 49.1126087,28.2795652 L43.5026087,39.4565217 C43.0257268,40.3500903 42.0906116,40.9034129 41.0778261,40.8913043 L33.8465217,41.006087 Z" id="Path" fill="#FFFFFF"></path>
                    <path d="M45.3247826,18.4082609 L43.4882609,14.7352174 C43.011379,13.8416488 42.0762638,13.2883262 41.0634783,13.3004348 L36.5295652,13.3004348 C35.9126087,15.2517391 35.0086957,18.1786957 34.3773913,20.2734783 L37.2469565,25.8834783 C37.5889612,26.6114114 37.6097823,27.4494597 37.3043478,28.1934783 L38.8395652,29.6282609 L44.9230435,22.2821739 L45.3247826,18.4082609 Z" id="Path" fill="url(#linearGradient-2)" opacity="0.25" style="mix-blend-mode: multiply;"></path>
                    <path d="M49.0982609,25.9121739 L44.793913,17.4613043 L43.3591304,14.7352174 C42.8822486,13.8416488 41.9471334,13.2883262 40.9343478,13.30024 C44.0621739,14.0178261 42.8713043,16.8156522 42.5269565,17.5330435 L37.0747826,28.466087 L37.0747826,28.466087 L32.0817391,38.4091304 C31.7992893,38.9770252 31.8298582,39.6504664 32.1625965,40.1904364 C32.4953348,40.7304064 33.0831411,41.060469 33.7173913,41.063673 L40.8913043,41.063673 C41.9040899,41.0755868 42.8392051,40.5222642 43.316087,39.6286957 L48.926087,28.4517391 C49.3921934,27.6833154 49.4563858,26.7364777 49.0982609,25.9121739 L49.0982609,25.9121739 Z" id="Path" fill="#FFFFFF"></path>
                    <path d="M77.2630435,76.9904348 L21.5217391,76.9904348 C21.4028778,76.9904348 21.3065217,76.8940787 21.3065217,76.7752174 C21.3065217,76.6563561 21.4028778,76.56 21.5217391,76.56 L77.2630435,76.56 C77.3819048,76.56 77.4782609,76.6563561 77.4782609,76.7752174 C77.4782609,76.8940787 77.3819048,76.9904348 77.2630435,76.9904348 L77.2630435,76.9904348 Z" id="Path" fill="#F94343"></path>
                </g>
            </g>
        </g>
    </g>
</svg>